<svg width="1200" height="320" viewBox="0 0 1200 320" fill="none" xmlns="http://www.w3.org/2000/svg">
  <rect width="1200" height="320" rx="28" fill="#0D1512"/>
  <path d="M140 209C114 189 101 164 96 136C118 141 134 151 146 168C145 144 151 124 164 108C171 127 173 145 169 164C184 147 204 137 230 133C223 159 209 179 187 196" stroke="#DCE7DF" stroke-width="10" stroke-linecap="round" stroke-linejoin="round"/>
  <path d="M242 209C268 189 281 164 286 136C264 141 248 151 236 168C237 144 231 124 218 108C211 127 209 145 213 164C198 147 178 137 152 133C159 159 173 179 195 196" stroke="#DCE7DF" stroke-width="10" stroke-linecap="round" stroke-linejoin="round"/>
  <path d="M191 198V246" stroke="#7FB08D" stroke-width="14" stroke-linecap="round"/>
  <path d="M191 219L166 243" stroke="#7FB08D" stroke-width="10" stroke-linecap="round"/>
  <path d="M191 226L220 254" stroke="#7FB08D" stroke-width="12" stroke-linecap="round"/>
  <text x="330" y="150" fill="#F3F6F4" font-family="Georgia, 'Times New Roman', serif" font-size="64" font-weight="700" letter-spacing="1.5">Wild Game</text>
  <text x="330" y="224" fill="#A8C4B1" font-family="Arial, Helvetica, sans-serif" font-size="52" font-weight="800" letter-spacing="7">BUTCHER BOARD</text>
</svg>
